<?xml version="1.0" encoding="utf-8"?>
<!-- Generator: Adobe Illustrator 22.1.0, SVG Export Plug-In . SVG Version: 6.00 Build 0)  -->
<svg version="1.1" id="Capa_1" xmlns="http://www.w3.org/2000/svg" xmlns:xlink="http://www.w3.org/1999/xlink" x="0px" y="0px"
	 viewBox="0 0 819.7 832" style="enable-background:new 0 0 819.7 832;" xml:space="preserve">
<style type="text/css">
	.st0{fill:#FFFFFF;}
	.st1{fill-rule:evenodd;clip-rule:evenodd;}
</style>
<g>
	<g>
		<path d="M256.5,665.9c-0.1-0.8,0.1-1.6,0-2.3c-0.5-4.6,2.3-7.5,7-8.4c17.5,4,35.3,7.5,52.9,11.3c-1.6,18.5,2.3,36.1,11.6,53.1
			c5.1,9.3,4.3,9.6-7.7,10.9c-1.9,0.2-3.7,0.4-7.1,0.8c1.1,5.5,2,10.9,3.2,16.3c1.8,8.5,1.8,9.1-8.9,9.4c-6.8,0.2-13.5,0.2-20.4,0.2
			c-8.5,0-14.3,0-21.1-0.2c-10.6-0.3-11-0.9-9.2-9.4c1.2-5.4,1.9-10.8,3-16.3c-3.4-0.4-5.3-0.6-7.2-0.8c-12-1.3-12.9-1.6-7.8-10.9
			C254.3,702.4,258.3,684.6,256.5,665.9z"/>
	</g>
	<g>
		<path class="st0" d="M327.9,235.3c0-0.5,0.1-1,0.1-1.5c1.5-23.7,2-47.4,5.1-71c3.6-27.8,12.6-54.9,34.3-76.8
			c13.8-13.9,22.8-18.9,33.3-17.4v172.9c-9.5-0.3-19,3-26,10.1c-6.8,6.9-12.7,15.1-15.8,23.6c-8.6,23.6-16.8,47.3-22.7,71.4
			c-2.9,11.8-5.6,23.5-8.3,35.3V235.3z"/>
	</g>
	<g>
		<path class="st0" d="M255.3,396.2c0.4-46.8,1.4-93.6,3-140.4c0.6-15.8,7.9-30.5,17.6-44.1c6-8.4,13-8.9,20.8-1.4
			c3.8,3.7,6.8,8.3,8.9,12.9c3.6,7.8,6.7,15.8,9.9,23.7v161.1c-6.2,27.9-12.1,55.9-18.7,83.7c-1.8,7.5-5.8,15.4-11.4,21.4
			c-7.9,8.5-18.2,15.6-29.3,24.7c-0.1-4.3-0.3-6.6-0.3-8.8C255.7,484.8,255,440.5,255.3,396.2z"/>
	</g>
	<g>
		<path d="M232.6,575.5c22.8-18,45.6-36.1,68.7-53.8c14.3-11,22.5-24.2,25.9-39.9c9.8-45.6,19.8-91.2,30.2-136.7
			c5.7-24.9,12.2-49.7,25.1-72.9c3.4-6.2,6.5-14,16.8-14.2c0.5,0,1,0,1.5,0v467.6c-10.5-0.2-20-0.5-30.1-0.7
			c-0.2-7.7-0.2-15.3-0.6-23c-0.5-9.7-4.3-17.6-17.1-20.8c-6.4-1.6-9.7-5.9-9.9-11.4c-0.2-8.6-6-13.8-15.5-15.3
			c-26.1-4.4-52.4-8.3-78.7-12.2c-10.6-1.6-22.6-3.3-34-4.9c0,0,0.1,0.1,0.1,0.1l-1.6-0.3c0.1,0,0.1,0,0.2,0
			c-0.6-0.1-1.2-0.2-1.8-0.3l0,0l-4.1-0.7C201,611.7,209.2,594,232.6,575.5z"/>
	</g>
	<g>
		<path class="st1" d="M327.9,235.3c0-0.5,0.1-1,0.1-1.5c1.5-23.7,2-47.4,5.1-71c3.6-27.8,12.6-54.9,34.3-76.8
			c13.8-13.9,22.8-18.9,33.3-17.4v172.9c-9.5-0.3-19,3-26,10.1c-6.8,6.9-12.7,15.1-15.8,23.6c-8.6,23.6-16.8,47.3-22.7,71.4
			c-2.9,11.8-5.6,23.5-8.3,35.3V235.3z"/>
	</g>
	<g>
		<path class="st1" d="M255.3,396.2c0.4-46.8,1.4-93.6,3-140.4c0.6-15.8,7.9-30.5,17.6-44.1c6-8.4,13-8.9,20.8-1.4
			c3.8,3.7,6.8,8.3,8.9,12.9c3.6,7.8,6.7,15.8,9.9,23.7v178.6c-5.3,30.4-5.9,35.9-12.5,63.7c-1.8,7.5-12,17.9-17.6,24
			c-7.9,8.5-18.2,15.6-29.3,24.7c-0.1-4.3-0.3-6.6-0.3-8.8C255.7,484.8,255,440.5,255.3,396.2z"/>
	</g>
	<g>
		<path d="M544.9,665.9c0.1-0.8-0.1-1.6,0-2.3c0.5-4.6-2.3-7.5-7-8.4c-17.5,4-35.3,7.5-52.9,11.3c1.6,18.5-2.3,36.1-11.6,53.1
			c-5.1,9.3-4.3,9.6,7.7,10.9c1.9,0.2,3.7,0.4,7.1,0.8c-1.1,5.5-2,10.9-3.2,16.3c-1.8,8.5-1.8,9.1,8.9,9.4
			c6.8,0.2,13.5,0.2,20.4,0.2c8.5,0,14.3,0,21.1-0.2c10.6-0.3,11-0.9,9.2-9.4c-1.2-5.4-1.9-10.8-3-16.3c3.4-0.4,5.3-0.6,7.2-0.8
			c12-1.3,12.9-1.6,7.8-10.9C547.1,702.4,543.2,684.6,544.9,665.9z"/>
	</g>
	<g>
		<path class="st0" d="M473.6,235.3c0-0.5,0-1-0.1-1.5c-1.6-23.7-2-47.4-5.1-71c-3.6-27.8-12.6-54.9-34.4-76.8
			c-13.8-13.9-22.8-18.9-33.3-17.4v172.9c9.5-0.3,19,3,26,10.1c6.8,6.9,12.7,15.1,15.8,23.6c8.6,23.6,16.8,47.3,22.7,71.4
			c2.9,11.8,5.6,23.5,8.3,35.3V235.3z"/>
	</g>
	<g>
		<path class="st0" d="M546.1,396.2c-0.4-46.8-1.4-93.6-3-140.4c-0.5-15.8-7.9-30.5-17.6-44.1c-6-8.4-13-8.9-20.8-1.4
			c-3.8,3.7-6.8,8.3-8.9,12.9c-3.6,7.8-6.7,15.8-9.9,23.7v161.1c6.2,27.9,12.1,55.9,18.7,83.7c1.8,7.5,5.8,15.4,11.4,21.4
			c7.9,8.5,18.2,15.6,29.3,24.7c0.1-4.3,0.2-6.6,0.3-8.8C545.7,484.8,546.5,440.5,546.1,396.2z"/>
	</g>
	<g>
		<path d="M568.8,575.5c-22.8-18-45.6-36.1-68.7-53.8c-14.3-11-22.5-24.2-25.9-39.9c-9.8-45.6-19.8-91.2-30.2-136.7
			c-5.7-24.9-12.2-49.7-25.1-72.9c-3.4-6.2-6.5-14-16.8-14.2c-0.5,0-1,0-1.5,0v467.6c10.5-0.2,20-0.5,30.1-0.7
			c0.2-7.7,0.2-15.3,0.6-23c0.5-9.7,4.3-17.6,17.1-20.8c6.4-1.6,9.7-5.9,9.9-11.4c0.2-8.6,6-13.8,15.5-15.3
			c26.1-4.4,52.4-8.3,78.7-12.2c10.6-1.6,22.6-3.3,34-4.9c0,0-0.1,0.1-0.1,0.1l1.6-0.3c-0.1,0-0.1,0-0.2,0c0.6-0.1,1.2-0.2,1.8-0.3
			l0,0l4.1-0.7C600.5,611.7,592.2,594,568.8,575.5z"/>
	</g>
	<g>
		<path class="st1" d="M473.6,235.3c0-0.5,0-1-0.1-1.5c-1.6-23.7-2-47.4-5.1-71c-3.6-27.8-12.6-54.9-34.4-76.8
			c-13.8-13.9-22.8-18.9-33.3-17.4v172.9c9.5-0.3,19,3,26,10.1c6.8,6.9,12.7,15.1,15.8,23.6c8.6,23.6,16.8,47.3,22.7,71.4
			c2.9,11.8,5.6,23.5,8.3,35.3V235.3z"/>
	</g>
	<g>
		<path class="st1" d="M546.1,396.2c-0.4-46.8-1.4-93.6-3-140.4c-0.5-15.8-7.9-30.5-17.6-44.1c-6-8.4-13-8.9-20.8-1.4
			c-3.8,3.7-6.8,8.3-8.9,12.9c-3.6,7.8-6.7,15.8-9.9,23.7v178.6c5.3,30.4,5.9,35.9,12.5,63.7c1.8,7.5,12,17.9,17.6,24
			c7.9,8.5,18.2,15.6,29.3,24.7c0.1-4.3,0.2-6.6,0.3-8.8C545.7,484.8,546.5,440.5,546.1,396.2z"/>
	</g>
	<g>
		<g>
			<path class="st0" d="M324.3,555.2c0.7,8.5-0.1,26.8,1.4,48.4c0.1,1.9,3.9,15.4,2.8,17.8c-0.3,0.7-5.1,1.6-9,1.6
				c-8.9,0-14.8-1.1-15.4-3.5c-0.7-3.2,0.2-12-1-13.7c-0.4-0.5-3.5-0.7-5.8-0.8c-0.4,0-0.6,0-1.1,0c-3.2,0-9.8,1.5-16.9,1.5
				c-3.6,0-7.1-0.7-8.9-0.7c-2.3,0-3.8,1.5-4.8,3.2c-5.2,8.7-12.5,14.3-14.6,14.3c-2.8,0.2-4.2,0.3-6.9,0.6
				c-11.9-0.2-15.5-1.5-14.6-2.7c2.6-3.6,14.1-15.7,27.8-31.7c9.1-10.6,19-21.2,30.1-32.2c2.6-2.6,6.8-10.1,11.7-14.4
				c0.4-0.4,1.1-0.6,1.4-0.6c14.1-2.7,20.5-2.4,20.8-1.9C321.4,541.2,323.6,546.7,324.3,555.2z M301.8,586.2
				c0.2-0.5,0.6-0.9,0.7-1.1c1.3-3.6-1.6-11.6-2.9-14.9c-0.1,0-0.2,0-0.3,0c-0.2,0-12.5,15.2-12.5,15.2c0.3,0.8,10.6,1.2,12.2,1.1
				C300.1,586.4,300.7,586.4,301.8,586.2z"/>
			<path class="st0" d="M359.8,536.5c1-0.2,2-0.3,2.8-0.6c0.4,0.3,0.6,0.5,0.9,0.8c-0.3,1.4-0.5,2.2-0.5,2.2
				c-0.2,3.1,0.1,7.9-0.3,13.8c-1,13.8-5.1,44.3-5.1,44.3c0.1,0,7.3-14.5,14.6-39.4c0.7-2.3,2.3-8.9,3.6-17c0.5-2.9,1.3-4.1,2.2-4.2
				c0.6-0.1,1.4-0.2,2.2-0.2c1,0,1.5,0,2.5,0c0.8,0.2,1.3,1,1.3,2.5c0,1.5,1.1,6.8,1.9,18.7c1.5,20.4,1.1,39.9,1.7,47.4
				c0.3,3,1.5,5.1,1.6,5.1c9.1-5.5,10.7-61.3,10.8-62.7c0.2-7.7,2.1-10.4,4.5-10.5c1.5-0.1,3.1-0.2,4.5-0.2c6.4,0,9.5,0.4,9.5,1.1
				c0,3.8,0,5.9,0,10.7c0,7.8-2.4,25.2-7.8,54.8c-4.9,26.6-7.4,40.2-7.5,44.3c-0.3,8.8-1.5,11.8-2.6,11.9c-3.1,0.3-7.2,0.5-10.7-0.9
				c-7.9-3.2-11.8-8-11.9-10c-1.4-18.4-3.1-39.3-4-45.3c-0.1-0.1-0.2-0.1-0.3-0.2c-3.1,10.2-4.8,15-7.9,22.7
				c0,0.5-3.3,13.1-4.5,13.6c-0.4,0.2-4-2.5-7.3-4.8c-2-1.4-3-2.1-5-3.4c-6.7-4.3-10.1-5.7-10.1-6.7c0.1-2.2-2.3-11.6-0.6-27.2
				c2.2-20.3,6.8-37.2,6.6-46.2c-0.1-6-0.2-10.5,0-13.4c0-0.5,1.8-1,4.9-1.4C354.4,536.1,356.4,536.3,359.8,536.5z"/>
			<path class="st0" d="M466.7,553.4c3.1,10,9.1,29.7,19.2,50.3c0.9,1.8,9.5,15.6,8.9,17.3c-0.3,0.8-6.8,1.8-10.8,1.9
				c-9.1,0.1-12.4-0.4-13.2-2.3c-1.1-2.6-2.3-10.6-4-12c-0.4-0.3-2.9,0.3-4.7,1c-0.3,0.1-0.5,0.2-0.8,0.3c-2.4,1-6.7,4.8-12.1,8.1
				c-2.6,1.6-5.5,2.5-6.9,3.4c-1.8,1.1-2.4,3.3-2.6,5.5c-1,11-4.6,17.3-6.2,18.4c-2,1.6-3.1,2.4-5.1,4c-9.6,6.2-14.4,6.9-14.2,5.9
				c0.7-3.2,6-18,11.5-48c3.7-20,7.7-40.7,12.9-55.5c1.2-3.5,2.3-13.1,5.1-16.5c0.2-0.2,0.8-0.4,1-0.4c10.7,0,15.8,1.3,16.2,2.1
				C461.3,538,463.7,543.8,466.7,553.4z M459.4,589.3c0-0.6,0.1-1.2,0.1-1.4c-0.1-5.2-5.3-13.3-7.3-17.5c-0.1,0-0.1,0-0.2,0
				c-0.1,0-5.2,20.4-4.3,21.4c0.7,0.7,8.5-1.2,9.6-1.6C458.3,589.8,458.6,589.6,459.4,589.3z"/>
			<path class="st0" d="M529.6,564.7c0.5,5.6,0,18.1,0.9,22.6c0.1,0.4,1,1.2,1.2,1.6c1.4,2.3,2.6,3.9,3.2,4.8
				c2.9,4.3,6.4,11.5,10.4,19.5c0.6,1.2,3.6,4.7,3.5,6.1c0,0.5-3.5,1.3-7.7,1.7c-1.3,0.1-2.6,0.3-3.8,0.3c-12,0.5-18,0.2-18.2-0.6
				c-0.7-2.5-1.6-4.8-2-6.4c-0.2-0.7-0.2-1-0.4-1.7c-0.1-0.6-0.3-0.9-0.5-0.8c0-0.6,0-0.9-0.1-1.5c-1.3-5.2-2.1-7.9-3.6-13.3
				c-3.4-9.5-5.7-14.3-6.1-14.5c-9.1-4.6-19.9-26.3-26.6-37.8c-1.2-2.1-1.7-3.9-1.8-4.9c0-0.5,0-0.8,0-1.3c0-0.6,0.3-1.6,0.7-1.8
				c1.9-0.9,6.6,0.6,8.7,1.1c0.3,0.1,0.4,0.1,0.7,0.2c4.3,1.1,6,2.4,6.2,3c1,3.9,4.9,12.1,14.6,22.7c0.7,0.8,1.7,1.5,1.8,1.4
				c0.3-0.2-0.1-4,0-6.9c0.1-3.1,1.1-6.7,0.7-8.1c-0.2-0.8,0-0.9,1.6-0.1c3.4,1.7,5.8,2.5,6.1,2.6c4.3,1.5,7.9,3.7,8.6,4.7
				C529.4,559.8,529.5,562.6,529.6,564.7z"/>
		</g>
	</g>
	<g>
		<g>
			<path class="st0" d="M367.9,439.5c5.2-4.7,7.7-7.1,7.7-6.5c0.2,0.2,0.3,0.4,0.5,0.6c-0.4,1.7-0.6,3.1-0.6,4.3c0,0.2,0,0.2,0,0.4
				c0,1.1,0.3,4.3,0.5,9.9c0.1,2.2-0.3,3.7-0.7,4c-7.4,5.1-12.3,7.8-14.8,8.3c-0.6,0.4-0.9,0.5-1.6,0.9c-0.8,6.5-1.6,11.2-2,13.2
				c0.1,0,0.1,0,0.2-0.1c1.6-0.8,3-1.5,4.1-2c0.2-0.1,0.3-0.1,0.5-0.2c8.4-3.8,12.5-5.2,12.5-3c0,8.3,0,12.7,0,21
				c-4.5,2.6-10.1,5-15.3,5.7c-2.8,0.4-5,0.3-5.8,0.5c-0.2,0-0.3,0.1-0.6,0.1c-0.3,0.1-1.5,0.4-1.8,0.8c-2.1,2.7-2.8,13.1-4.8,19.6
				c-1.7,5.6-3.3,7.6-4.6,7.7c-3,0.2-5,0.4-5.9,0.4c-8.4,0.1-11.4-0.7-11-1.7c0.6-1.5,0.9-2.3,1.6-4c1.8-4.4,3.9-9.2,5.7-13.9
				c2-5.2,3.2-9.5,3.9-11.4c2.9-7.1,6.4-15.2,8.3-22.8c1.3-5.1,2.2-9.5,2.7-13.1c0.4-3,0.3-5.8,0.7-6.8c0.3-0.8,1.6-1.5,2.3-1.6
				c4.3-0.5,6.2-1.3,9.9-3.3c2.2-1.4,4.1-3.2,5.8-4.9C366.3,440.9,366.8,440.5,367.9,439.5z"/>
			<path class="st0" d="M389.7,420.7c2.1-1,3.2,1.9,3.5,2c0,0,0.2,0.3,0.2,1.2c0.1,2,0,5.1,0.4,8.5c0.6,5.4,1.9,11.6,2.4,16.5
				c0.9,8.7,1.9,26.4,3.1,46.3c0.3,4.3,1.1,6.4,2.3,6.3c0.4,0,5,2,8.9,2.2c3,0.1,7-1.1,8.6-0.9c1.9,0.2,3,1.5,3.3,3.3
				c0.2,0.9,0.8,3.5,1.3,7.1c1,6.6-0.2,8.9-2,9c-3.7,0.2-8,1.3-10.4,0.9c-0.3-0.1-0.8-0.2-1.4-0.2c-0.1,0-0.2,0-0.3,0
				c-2.4,0-8.3-0.9-18.2-1.1c-7.1-0.1-11.5,0.1-11.5-0.5c0-1.2-0.3-2.4-0.2-3.3c0.1-1.5,0.9-5.3,0.9-11.3c0-5.4-0.6-10-0.6-11.6
				c0.2-9.4,0.2-19.4,0.1-28.8c0-1.6,0-2.4-0.1-4.1c0-2.5,0.3-7.5,0.3-13.9c0-5.1-0.5-9.6-0.6-12.9c-0.2-3.2,0.1-5.8,0.7-7.9
				C383.9,424.3,385.7,422.8,389.7,420.7z"/>
			<path class="st0" d="M458.4,472.6c-2.7,10.9-5.3,20.2-5,23.9c0,0.4,0.7,1.2,0.9,1.6c1,2.1,1.9,3.6,2.4,4.5
				c2.2,3.9,5,9.8,8.3,16.2c0.5,0.9,2.8,3.6,2.8,4.8c0,0.4-2.4,0.8-5.3,0.9c-0.8,0-1.8,0.1-2.6,0c-8.3-0.3-12.5-0.9-12.7-1.5
				c-0.7-2.1-1.5-4.1-1.9-5.5c-0.2-0.6-0.2-0.9-0.4-1.5c-0.1-0.5-0.3-0.8-0.4-0.8c-0.1-0.5-0.1-0.8-0.2-1.3
				c-1.4-4.8-2.2-7.4-3.8-12.9c-3.3-9.8-5.4-15.8-5.8-16.1c-9.6-9.3-18.2-38.5-24.6-54.4c-1.2-2.9-1.6-5-1.7-6.1c0-0.6,0-0.8,0-1.4
				c0-0.6,0.3-1.7,0.6-1.8c1.4-0.4,6,2.6,8.2,4.1c0.3,0.2,0.4,0.3,0.7,0.5c4.5,3,6.5,5.5,6.6,6.4c0.6,5.6,4.3,18.4,12.3,34.4
				c0.6,1.2,1.5,2.4,1.6,2.4c0.2,0,0.4-4.1,1.4-7.5c1-3.5,4.3-8.8,4.6-11.9c0.1-1.4,0.7-1.8,2.4-0.9c3.8,2,6.4,2.2,6.6,2.2
				c3.4,0.4,7.1,3.3,7.3,5.5C461.1,461.5,459.6,468,458.4,472.6z"/>
		</g>
	</g>
	<g>
		<g>
			<path d="M241.6,487.9c1.2-5.7,0.5-11.5,0.6-17.3c0.1-6.4,0.5-12.8,0.7-19.3c0.1-2-3.2-2.5-3.6-0.5c-1.1,5.7-1.2,11.4-1.3,17.2
				c-0.1,6.4,1.2,13,0.6,19.4C238.5,489.2,241.3,489.6,241.6,487.9L241.6,487.9z"/>
		</g>
	</g>
	<g>
		<g>
			<path d="M239.9,433.8c0.2-7.5,0.6-15,0.2-22.5c-0.1-2.4-3.5-2.4-3.7,0c-0.4,7.5,0,15,0.2,22.5
				C236.7,435.9,239.8,435.9,239.9,433.8L239.9,433.8z"/>
		</g>
	</g>
	<g>
		<g>
			<path d="M243.5,269.7c0.6,0.3,0.9,0.6,1.6,0.6c1.3,0.1,1.9-1.4,1.4-2.4c-1.8-3.5,0.5-13.8,0.9-17.8c0.8-9.3,2.5-17,5.2-25.9
				c0.5-1.8-2.3-3-3.1-1.3c-3.6,8.4-5.1,15-5.7,24.1c-0.4,5.4-0.5,10.7-1.3,16.1c-0.4,2.7-0.2,4.3,1.2,6.4c0.5-0.8,0.9-1.6,1.4-2.4
				c-0.7,0-1,0.3-1.6,0.6C242.8,268.2,242.8,269.3,243.5,269.7L243.5,269.7z"/>
		</g>
	</g>
	<g>
		<g>
			<path d="M258.2,215.5c2.4-0.3,3.3-3,4.8-4.6c2.5-2.8,5.2-5.1,8.4-7.1c1.8-1.2,0.1-4.1-1.7-2.9c-2.8,1.9-5.5,3.8-7.6,6.5
				c-0.6,0.7-1.3,1.3-1.9,2.1c-0.7,0.9-1.5,3-2.7,3.2C255.4,212.9,256.3,215.8,258.2,215.5L258.2,215.5z"/>
		</g>
	</g>
	<g>
		<g>
			<path d="M323.4,170.1c2.8-24.5,8.1-45.3,20.4-66.8c0.7-1.1-0.9-2.4-1.8-1.4c-16.3,17.4-19.2,45.5-20.9,68.2
				C321,171.6,323.3,171.5,323.4,170.1L323.4,170.1z"/>
		</g>
	</g>
	<g>
		<g>
			<path d="M348.6,94c2.8-0.1,4.1-3.2,5.8-5c3.2-3.4,6.7-6.3,9.7-9.8c1-1.2-0.5-2.7-1.7-1.7c-2.9,2.4-5.4,5.1-8,7.8
				c-0.9,0.9-1.8,1.8-2.6,2.9c-1,1.4-1.8,3.3-3.5,3.8C347.2,92.2,347.4,94,348.6,94L348.6,94z"/>
		</g>
	</g>
	<g>
		<g>
			<path d="M489.1,212.7c-0.2,0.5-0.3,0.8-0.3,1.3c-0.2,1.7,2.3,1.8,2.8,0.4c1.3-3.7,4.6-7,6.8-10.2c2.9-4.4,7.6-7,12.2-9.4
				c1.5-0.8,0.4-3-1.1-2.7c-5.5,1.1-9.8,4.5-13.2,8.8c-1.6,2.1-2.9,4.5-4.3,6.8c-1.4,2.2-2.6,3.3-3,6c0.9,0.1,1.9,0.3,2.8,0.4
				c0-0.5-0.2-0.8-0.3-1.3C491,211.6,489.5,211.6,489.1,212.7L489.1,212.7z"/>
		</g>
	</g>
	<g>
		<g>
			<path d="M520.7,191.6c0.1,2.5,3.2,3.5,5,4.6c3.7,2.4,7.3,5,10.5,8c1.1,1,3-0.3,2.1-1.6c-2.2-3.3-5.2-5.5-8.6-7.6
				c-1.9-1.2-3.9-2.2-5.8-3.2c-0.9-0.5-1.4-1-2.4-1C521.1,190.8,520.7,191.1,520.7,191.6L520.7,191.6z"/>
		</g>
	</g>
	<g>
		<g>
			<path d="M555.5,313c0.1,0.7,0.1,1.1,0.4,1.6c1.4,2.4,4.9-0.1,3.1-2.4c-0.3-0.4-0.6-0.7-0.9-1.1c-1.4-1.7-4,0.1-3.5,2
				c6.1,22.4,0,49.7,1,72.7c0.1,2.6,3.9,2.6,4,0c0.6-14.3,0.4-28.6,1-43c0.5-9.8,1-21.4-2-30.8c-1.2,0.7-2.3,1.4-3.5,2
				c0.3,0.3,0.7,0.6,1.1,0.9c2.3,1.8,4.8-1.7,2.4-3.1c-0.6-0.3-1-0.3-1.6-0.4C556,311.4,555.4,312,555.5,313L555.5,313z"/>
		</g>
	</g>
	<g>
		<g>
			<path d="M556.4,402.5c0,9.4,0.3,18.9,0.6,28.3c0.1,2.1,3.2,2.1,3.3,0c0.3-9.5,0.3-19.3-1.4-28.7
				C558.6,400.8,556.4,401.2,556.4,402.5L556.4,402.5z"/>
		</g>
	</g>
	<g>
		<g>
			<path d="M575.7,563.5c4.9,2.6,10.6,11,13.5,15.4c4.9,7.2,7.9,15.5,11.3,23.5c1,2.4,4.9,1.5,4.1-1.1c-3.1-9.5-7.6-19.1-13.9-26.8
				c-2.5-3.1-10.1-13.7-14.7-12.5C575.2,562,575.1,563.2,575.7,563.5L575.7,563.5z"/>
		</g>
	</g>
	<g>
		<g>
			<path d="M607.9,618.5c-1.7,1.1-1.3,3.3-1.4,5c-0.2,2.9-0.2,5.7,0.2,8.5c0.3,2.2,3.2,2.2,3.5,0c0.3-2.6,0.4-5.1,0.3-7.7
				c-0.1-1.9,0.3-4.8-1.5-5.9C608.7,618.3,608.2,618.3,607.9,618.5L607.9,618.5z"/>
		</g>
	</g>
	<g>
		<g>
			<path d="M555.6,685.5c-4.5,14.8,8.9,30.3,16.6,41.5c1.7,2.5,5.5,0.3,4.1-2.4c-3.4-6.1-7.7-11.7-11.4-17.6c-4.3-7-4.7-14-7.1-21.5
				C557.4,684.4,555.9,684.4,555.6,685.5L555.6,685.5z"/>
		</g>
	</g>
	<g>
		<g>
			<path d="M556.6,740.8c0.2,0.5,0.2,1.1,0.5,1.6c0.7,0.9,2,1.3,2.8,0.4c0.8-0.8,1.8-0.1,2.6-0.1c1.7,0,3.3-0.2,4.9-0.5
				c2.8-0.7,5.4-2.1,7.7-3.8c1.6-1.2,0.7-4.2-1.5-3.5c-3.9,1.2-7.1,3.3-11.2,3.6c-2.4,0.2-4.1-0.4-5.5,2.2c0.8-0.2,1.6-0.4,2.5-0.6
				c-0.5-0.3-1.1-0.3-1.6-0.5C557.1,739.2,556.3,740,556.6,740.8L556.6,740.8z"/>
		</g>
	</g>
	<g>
		<g>
			<path d="M357.1,715.4c0.5,0.2,0.8,0.3,1.3,0.3c-0.5-0.5-1-1-1.5-1.5c-0.2,5.2-0.5,10.4-0.5,15.6c0,3.7-1,6.9,2.2,9.7
				c2.5,2.1,6.2,2.4,9.2,3c4.9,1.1,11.6,1,16.6-0.1c1.9-0.4,1.9-3.4,0-3.8c-7.2-1.5-14.6,0.3-21.8-1.9c-3.8-1.1-2.1-7.8-2.1-10.9
				c0-3.9-0.3-7.8-0.5-11.7c0-0.8-0.7-1.6-1.5-1.5c-0.5,0-0.8,0.2-1.3,0.3C355.9,713.3,355.9,715,357.1,715.4L357.1,715.4z"/>
		</g>
	</g>
	<g>
		<g>
			<path d="M393.9,740c1.1,3.6,3.7,3.7,7,3.8c4.1,0.1,7.7,1.2,11.7,0.4c1.6-0.3,1.6-3,0-3.3c-3.2-0.7-6.4-1.6-9.6-1.6
				c-0.6,0-4.3,0.5-4.6,0.2c-0.8-0.7-1.4-1.2-2.4-1.5C394.7,737.5,393.5,738.8,393.9,740L393.9,740z"/>
		</g>
	</g>
	<g>
		<g>
			<path d="M199.2,610.6c1.5-11.3,7.6-21.5,15-29.9c1.6-1.9-0.9-4.4-2.7-2.7c-8.5,7.6-15.6,21.1-14.3,32.6
				C197.4,611.9,199,611.8,199.2,610.6L199.2,610.6z"/>
		</g>
	</g>
	<g>
		<g>
			<path d="M218.7,572.1c0.3,0.6,0.5,1,0.9,1.5c0.3,0.4,1,0.5,1.5,0.4c5.8-2,10.8-7.2,14.6-11.8c1.6-1.9-0.8-4.3-2.7-2.7
				c-4.5,3.8-7.7,8.9-13.1,11.8c0.6,0.1,1.2,0.2,1.8,0.2c-0.5-0.4-0.9-0.6-1.5-0.9C219.2,570.1,218.2,571,218.7,572.1L218.7,572.1z"
				/>
		</g>
	</g>
	<g>
		<g>
			<path d="M243.4,677c-1.4,11.2-1.6,21.8-5.2,32.7c-0.7,2.2,2.5,3.4,3.7,1.5c6-9.8,6.1-23.1,4.8-34.2
				C246.4,674.9,243.7,674.9,243.4,677L243.4,677z"/>
		</g>
	</g>
	<g>
		<g>
			<path d="M239.1,654.9c0.4,1.3,0.7,2,1.7,3.1c-0.2-0.5-0.4-0.9-0.6-1.4c-0.1,1.9-0.3,3.8-0.2,5.7c0,1.9,0.9,3.7,1.2,5.6
				c0.4,2.4,4.1,1.7,4.1-0.6c0.1-3.2-0.9-6.3-1-9.5c-0.1-2.7-1.3-3.5-3.7-4.3C239.7,653.2,238.8,654.1,239.1,654.9L239.1,654.9z"/>
		</g>
	</g>
	<g>
		<g>
			<path d="M276,769c8.4,2.3,17.9,3.8,26.7,2.9c2.7-0.3,2.6-3.9,0-4.1c-4.5-0.5-9.1-0.2-13.7-0.5c-4.3-0.3-8.8-1.1-13-0.5
				C274.9,766.9,275,768.7,276,769L276,769z"/>
		</g>
	</g>
	<g>
		<g>
			<path d="M313,772.5c4.7,1.3,11.8,0.9,14.7-3.7c3.6-5.7,1.2-12.8,0.3-19c-0.2-1.5-2.8-1.9-3.4-0.4c-1.9,4.3,0.3,8.8,0.4,13.3
				c0.1,5.9-7,7-11.5,6.4C311.4,768.8,311.1,772,313,772.5L313,772.5z"/>
		</g>
	</g>
	<g>
		<g>
			<path d="M450.5,89.1c2,0.9,0.3,0.7,1.5,2.1c3.8,4.6,7.5,8.9,10.7,14.1c5,8.1,3.7,20.2,10.8,26.8c1.1,1,2.9,0,2.5-1.5
				c-2-8.2-5-16.7-8.2-24.6c-3.1-7.7-10.5-11.9-14.3-18.8c-0.3-0.5-0.8-0.8-1.4-0.8c-0.6,0-1.1,0.3-1.6,0.5
				C449.7,87.3,449.7,88.7,450.5,89.1L450.5,89.1z"/>
		</g>
	</g>
	<g>
		<g>
			<path class="st0" d="M360.1,421.1c5,1.6,12.5-7.4,15.9-10.1c8.9-6.8,17.7-14.1,25.8-21.8c1.8-1.8-0.8-4.2-2.7-2.7
				c-7.2,5.6-14.2,11.5-21.1,17.6c-5.2,4.5-11.3,12.9-17.9,15C359.1,419.4,359.1,420.8,360.1,421.1L360.1,421.1z"/>
		</g>
	</g>
	<g>
		<g>
			<path class="st0" d="M412.6,404.5c0.1,0.8,0.1,1.2,0.7,1.8c0.5-0.6,1.1-1.1,1.6-1.7c-0.6-0.9-1.2-1.8-1.8-2.7
				c-1.2,0.7-2.3,1.3-3.5,2c4,3.2,8.7,5.1,12.8,8.2c4.3,3.3,8.2,7.2,13,9.7c2.1,1.1,4.5-1.7,2.6-3.4c-3.9-3.4-8.1-6.6-12.2-9.8
				c-4.2-3.3-9-5.5-13.7-8c-2.6-1.4-4.4,2.6-1.6,3.8c0.9,0.6,1.8,1.2,2.7,1.8c1.1,1,2.8-0.7,1.6-1.7c-0.6-0.5-1-0.6-1.8-0.7
				C412.8,404,412.5,404.2,412.6,404.5L412.6,404.5z"/>
		</g>
	</g>
	<g>
		<g>
			<path class="st0" d="M407.4,377.9c3.7,3.7,8.3,6.3,12.2,9.8c4.8,4.2,9.2,8.7,13.7,13.2c1.4,1.4,4-0.5,2.8-2.1
				c-3.5-4.8-7.9-8.6-12.5-12.3c-4.6-3.8-10.1-6.2-14.7-10C407.9,375.5,406.5,376.9,407.4,377.9L407.4,377.9z"/>
		</g>
	</g>
	<g>
		<g>
			<path class="st0" d="M365.5,400.1c5.1-3.9,8.8-8.9,13.1-13.5c5.7-6,11.5-11.9,17-18.1c1.3-1.5-0.9-3.7-2.2-2.2
				c-5,5.7-10.2,11.2-15.2,16.9c-4.6,5.2-8.2,11.4-13.5,16C364.3,399.6,365,400.5,365.5,400.1L365.5,400.1z"/>
		</g>
	</g>
	<g>
		<g>
			<path class="st0" d="M361.2,374.8c0.3,0.6,0.5,1,0.9,1.5c0.6,0.7,2,0.6,2.4-0.3c3.7-7.3,10-13,15.2-19.2
				c5-5.8,10.2-11.4,15.4-17.1c2-2.2-1.1-5.4-3.3-3.3c-6.3,5.9-11.8,12.4-17.1,19.1c-4.9,6.2-10,11.8-13,19.2
				c0.9-0.2,1.7-0.5,2.6-0.7c-0.5-0.4-0.9-0.6-1.5-0.9C361.8,372.6,360.6,373.8,361.2,374.8L361.2,374.8z"/>
		</g>
	</g>
	<g>
		<g>
			<path class="st0" d="M402.1,348.8c0.4,4.4,7.3,7.4,10.3,9.8c6.1,4.9,11.2,10.8,16.9,16c1.6,1.5,4.6-0.5,3.2-2.4
				c-4.3-6-9.6-11.1-15.4-15.7c-2.6-2-5.3-3.9-8.1-5.6c-1.9-1.2-3.3-3.2-5.6-3.4C402.7,347.5,402,348.2,402.1,348.8L402.1,348.8z"/>
		</g>
	</g>
	<g>
		<g>
			<path class="st0" d="M391.4,311c11.5,12.7,22.3,26.7,34.7,38.5c1.9,1.8,5.3-0.6,3.7-2.8c-9.9-14.1-23.3-26.6-36-38.1
				C392.1,307.1,389.9,309.3,391.4,311L391.4,311z"/>
		</g>
	</g>
	<g>
		<g>
			<path class="st0" d="M371.3,333.5c2.6,1.8,4.5-1.3,6.1-3.1c2.7-3,5.2-6.3,7.8-9.4c1.7-2.1-0.9-4.7-2.9-2.9
				c-4.2,3.7-6.9,8.7-10.6,12.8c0.5-0.2,0.9-0.4,1.4-0.6c-0.7,0-1.1,0.2-1.7,0.6C370.3,331.6,370.3,332.8,371.3,333.5L371.3,333.5z"
				/>
		</g>
	</g>
	<g>
		<g>
			<path class="st0" d="M404.9,300.3c6,6.3,11.8,13,18.3,18.8c1.8,1.7,4.6-0.4,3.4-2.6c-2.1-3.9-5.9-6.4-9-9.3
				c-3.4-3.1-6.7-6.3-10.1-9.4C405.8,296.1,403.3,298.6,404.9,300.3L404.9,300.3z"/>
		</g>
	</g>
	<g>
		<g>
			<path class="st0" d="M384.5,300.3c9.3-7,14.4-18.2,24.7-23.9c2.4-1.3,0.3-4.6-2.1-3.6c-11.3,4.9-15.6,17.4-24.4,25.2
				C381.5,299.1,383.2,301.3,384.5,300.3L384.5,300.3z"/>
		</g>
	</g>
	<g>
		<g>
			<path class="st0" d="M265.3,507.3c4,1.7,7.3-7.1,9.1-9.6c5.7-7.7,12.2-14.8,17.2-22.9c1.1-1.7-1.5-3.8-2.8-2.2
				c-4.5,5.1-8.6,10.5-12.7,16c-2.2,2.9-4.3,6-6.4,9c-1.4,2.2-2.7,6.6-4.5,7.3C264.1,505.4,264.1,506.8,265.3,507.3L265.3,507.3z"/>
		</g>
	</g>
	<g>
		<g>
			<path class="st0" d="M278.5,466.2c0.2,0.7,0.3,1.2,0.8,1.7c0.4,0.5,1.4,0.5,1.8,0c3.6-4.6,6.4-9.7,9.7-14.4
				c3.8-5.3,8.3-10.1,10.3-16.4c0.4-1.3-1.5-2.6-2.5-1.4c-7.6,9.6-12.9,20.5-19.6,30.7c0.7-0.1,1.3-0.2,2-0.3
				c-0.5-0.5-1-0.6-1.7-0.8C278.9,465.1,278.3,465.7,278.5,466.2L278.5,466.2z"/>
		</g>
	</g>
	<g>
		<g>
			<path class="st0" d="M260.1,471.3c0.3,0.5,0.5,0.9,0.9,1.3c0.6,0.6,1.4,0.2,1.7-0.4c9.4-23.4,24.7-45.5,36.8-67.7
				c1.2-2.2-2-4.1-3.3-2c-8.4,13.1-15.2,27-22.8,40.6c-3.6,6.5-6.9,13.1-9.9,19.9c-1.1,2.5-0.2,8.7-2.4,7.3
				C260.5,469.9,259.7,470.7,260.1,471.3L260.1,471.3z"/>
		</g>
	</g>
	<g>
		<g>
			<path class="st0" d="M272.4,414.7c-0.4,0.5-0.6,0.9-0.6,1.5c-0.1,1.5,2.2,2.2,2.9,0.8c9-17.4,21.8-32.9,30.5-50.7
				c1-2.1-1.8-3.7-3.1-1.8c-6,8.3-11.2,17.2-16.3,26.1c-4.7,8.2-10.3,16.4-13.9,25.2c1,0.1,2.1,0.3,3.1,0.4c0-0.6-0.3-1-0.6-1.5
				C273.9,414,272.9,414,272.4,414.7L272.4,414.7z"/>
		</g>
	</g>
	<g>
		<g>
			<path class="st0" d="M263.2,396.7c2.1-1.4,3.8-4.5,5.2-6.5c3.6-5.4,7-10.7,11-15.8c1.3-1.6-1-3.9-2.3-2.3
				c-3.7,4.7-7.1,9.6-10.1,14.8c-1.6,2.8-4.3,5.6-5.5,8.5C261.2,396.3,262.4,397.2,263.2,396.7L263.2,396.7z"/>
		</g>
	</g>
	<g>
		<g>
			<path class="st0" d="M286.8,356c1.9,2,12.1-16.3,13-18.6c0.4-1.1-1.2-1.7-1.8-0.8c-2,3-3.7,6.1-5.4,9.3c-0.6,1.1-4.3,9.4-5.5,9.3
				C286.7,355.2,286.5,355.7,286.8,356L286.8,356z"/>
		</g>
	</g>
	<g>
		<g>
			<path class="st0" d="M263.1,359.2c0.5,0.5,0.8,0.8,1.5,0.8c0.4,0,1-0.3,1.2-0.7c3.8-8.9,9.9-17.1,15.3-25
				c6.8-10,15.2-23.9,25.4-30.8c1.6-1.1,0.6-3.7-1.4-3.2c-3.9,1-6.2,2.5-8.7,6c-5.4,7.7-11.5,14.8-16.9,22.5
				c-5.4,7.6-9.6,15.8-14.2,23.9c-1.6,2.8-0.6,3.6-2.4,5.4C262.8,358.3,262.8,358.8,263.1,359.2L263.1,359.2z"/>
		</g>
	</g>
	<g>
		<g>
			<path class="st0" d="M279.6,305.9c5.2,3.3,21.4-30,22.7-32.3c1.2-2.1-1.9-3.8-3.2-1.9c-4.6,7.2-7.3,15.8-12.6,22.5
				c-1.5,1.9-4.2,9-6.6,9.5C278.9,303.9,278.8,305.4,279.6,305.9L279.6,305.9z"/>
		</g>
	</g>
	<g>
		<g>
			<path class="st0" d="M262.9,308.2c0.3,0.5,0.5,0.9,0.9,1.4c0.5,0.5,1.5,0.4,1.8-0.2c4.7-9.9,10.5-18.7,15.9-28.2
				c0.8-1.4-1.1-3-2.3-1.8c-7.8,7.8-12.2,18.8-15.7,29.1c0.7-0.2,1.3-0.3,2-0.5c-0.4-0.4-0.8-0.6-1.4-0.9
				C263.3,306.6,262.4,307.5,262.9,308.2L262.9,308.2z"/>
		</g>
	</g>
	<g>
		<g>
			<path class="st0" d="M285,258.5c4.8-7.3,8.9-15.1,14-22.3c0.9-1.3-1.1-2.7-2.1-1.6c-6.2,6.5-9.2,15.2-13.6,22.9
				C282.7,258.6,284.3,259.5,285,258.5L285,258.5z"/>
		</g>
	</g>
	<g>
		<g>
			<path class="st0" d="M274.2,243.1c0.5,0.2,0.7,0.3,1.2,0.3c0.4,0,0.8-0.2,1-0.5c3.5-7.8,9.1-14.4,14.1-21.2
				c1.3-1.7-1.6-3.4-2.8-1.7c-2.7,3.9-5.6,7.7-8.2,11.7c-1.3,2-2.4,4.1-3.4,6.2c-0.8,1.8-0.4,3.2-1.8,3.7
				C273.4,241.8,273.4,242.9,274.2,243.1L274.2,243.1z"/>
		</g>
	</g>
	<g>
		<g>
			<path class="st0" d="M515.4,487.9c1,2.7,3.2,5.1,5.1,7.3c2.9,3.3,5.7,7.1,7,11.4c0.7,2.4,4.2,1.4,3.7-1
				c-0.8-4.1-3.1-7.3-5.6-10.5c-1.5-1.9-3.8-3.5-5-5.6c-0.9-1.4-2-2.6-3.5-3.2C516.1,485.9,515,487,515.4,487.9L515.4,487.9z"/>
		</g>
	</g>
	<g>
		<g>
			<path class="st0" d="M497.1,450c3.7,5.7,8.8,10.6,13.2,15.7c5.3,6.3,10.4,12.9,15.6,19.4c1.5,1.9,4.7-0.6,3.3-2.5
				c-4.4-6.2-9.2-12.2-14.2-17.9c-4.9-5.7-10-12-16.3-16.2C497.7,447.8,496.5,449.1,497.1,450L497.1,450z"/>
		</g>
	</g>
	<g>
		<g>
			<path class="st0" d="M515.8,448.3c4.8,5.9,9.3,12.2,14.4,17.8c1.1,1.2,3.3-0.4,2.3-1.8c-4.7-6.2-10-11.8-15.1-17.7
				C516.4,445.5,514.9,447.1,515.8,448.3L515.8,448.3z"/>
		</g>
	</g>
	<g>
		<g>
			<path class="st0" d="M494.2,398.7c-0.5,0.6-0.9,1-1,1.9c-0.1,0.8,0.6,1.6,1.4,1.8c6,1.9,12.4,11.7,16.1,16.3
				c5.8,7.2,11,15.2,18.5,20.8c2,1.5,4-1.6,2.5-3.3c-7.1-8.2-13.9-16.6-21-24.8c-3.9-4.5-9.4-11.9-15.7-12.7
				c0.6,0.6,1.2,1.2,1.9,1.9c-0.1-0.8-0.4-1.3-1-1.9C495.6,398.2,494.7,398.2,494.2,398.7L494.2,398.7z"/>
		</g>
	</g>
	<g>
		<g>
			<path class="st0" d="M495.2,418.2c-1.8,1.5-0.2,3.4,0.9,4.8c1.7,2.2,3.6,4.2,5.6,6.2c1.7,1.7,4.3-0.9,2.6-2.6
				c-1.6-1.6-3.2-3.1-4.6-4.8c-0.3-0.3-0.5-0.6-0.8-0.9c0,0-1-1.8-1-0.8c0-0.8-0.2-1.3-0.8-1.9C496.4,417.8,495.8,417.8,495.2,418.2
				L495.2,418.2z"/>
		</g>
	</g>
	<g>
		<g>
			<path class="st0" d="M516,400.6c2.5,1.2,4.2,4.8,6.1,6.9c3.2,3.6,6,7.5,8.8,11.4c1.1,1.6,3.6,0.2,2.6-1.5c-2.6-4.9-6-9.3-10-13.2
				c-1.9-1.9-3.8-6-7-5.8C515.5,398.5,514.9,400.1,516,400.6L516,400.6z"/>
		</g>
	</g>
	<g>
		<g>
			<path class="st0" d="M496.5,361.5c6.2,3.5,11.6,11.1,16.6,16.4c7.7,8.2,14.7,17.1,22.5,25.2c2,2.1,4.8-0.9,3.1-3.1
				c-7.7-9.5-15.6-18.9-24.4-27.4c-2.8-2.7-13.2-15.6-17.7-13C495.8,360,495.8,361.1,496.5,361.5L496.5,361.5z"/>
		</g>
	</g>
	<g>
		<g>
			<path class="st0" d="M493.5,374.9c0.5,0.6,0.9,0.8,1.7,0.9c-0.5-0.5-1.1-1.1-1.6-1.6c0,2.8,2,4.1,3.7,5.9c2.3,2.5,5,4.4,7.7,6.4
				c1.8,1.4,3.5-1.4,2.3-2.9c-1.5-1.9-3.3-3.2-5.2-4.7c-1-0.8-1.9-1.7-2.9-2.5c-1-0.8-2.1-1.3-2.4-2.6c-0.1-0.6-0.9-1.3-1.5-1.2
				c-0.7,0.1-1.2,0.4-1.7,0.9C493.1,374,493.1,374.5,493.5,374.9L493.5,374.9z"/>
		</g>
	</g>
	<g>
		<g>
			<path class="st0" d="M495.3,327.2c10.2,10.7,17,24.4,28.8,33.7c1.9,1.5,4.4-0.9,2.7-2.7c-5.7-6-11.1-12.1-16.4-18.5
				c-4-4.7-8.3-11.2-13.6-14.4C495.5,324.6,494.3,326.2,495.3,327.2L495.3,327.2z"/>
		</g>
	</g>
	<g>
		<g>
			<path class="st0" d="M515.7,323.3c4.9,5.2,9.4,10.7,14.4,15.9c1.4,1.4,3.6-0.8,2.2-2.2c-5.1-5-9.8-10.4-14.9-15.4
				C516.4,320.5,514.6,322.2,515.7,323.3L515.7,323.3z"/>
		</g>
	</g>
	<g>
		<g>
			<path class="st0" d="M496.5,270.7c2.9,1.8,6,6.8,8.3,9.3c3.6,4.1,7.3,8.1,10.8,12.3c6.9,8.2,13.7,16.4,19.6,25.4
				c1.6,2.4,5.3,0.3,3.9-2.3c-5.5-9.7-13.1-17.8-20.5-26.1c-4.4-4.9-8.8-9.6-13.4-14.3c-2.5-2.5-4.3-5.6-7.8-6.5
				C496.1,268.3,495.4,270,496.5,270.7L496.5,270.7z"/>
		</g>
	</g>
	<g>
		<g>
			<path class="st0" d="M518.6,265.9c-2.7,3.1,2.5,6.4,4.5,8.6c4.3,5,8.3,10.2,12.6,15.2c1.5,1.8,4.5-0.5,3.2-2.5
				c-3-4.5-6.4-8.7-10-12.7c-1.9-2.1-3.8-4.1-5.9-6.1c-0.9-0.8-1.5-0.7-1.7-1.4c-0.1-0.5-0.5-0.9-0.9-1.3
				C520,265.3,519.1,265.3,518.6,265.9L518.6,265.9z"/>
		</g>
	</g>
	<g>
		<g>
			<path class="st0" d="M506.5,224c-0.4,0.9-0.8,1.7-0.3,2.7c2,3.5,4.7,6.3,6.5,10c1.6,3.2,5.2,6.4,7.6,9.2
				c3.5,4.2,6.9,8.5,10.4,12.7c1.6,1.9,4.8-0.6,3.4-2.6c-4.5-6.6-9.7-12.6-14.9-18.6c-2.3-2.7-3.9-5.8-6.1-8.5
				c-1.5-1.9-3.1-2.7-4-4.8C508.7,223,507,223,506.5,224L506.5,224z"/>
		</g>
	</g>
	<g>
		<g>
			<path class="st0" d="M265.5,688.8c3.7,0.4,7.6-4.3,9.8-6.7c4.5-4.8,9.8-8.6,14.3-13.4c1.6-1.7-0.5-4.6-2.5-3.3
				c-3.8,2.5-7.2,5.5-10.5,8.6c-2,1.9-3.8,3.8-5.6,5.9c-0.8,0.9-4.2,4.7-5.4,4.8C262.9,685.1,262.9,688.5,265.5,688.8L265.5,688.8z"
				/>
		</g>
	</g>
	<g>
		<g>
			<path class="st0" d="M254,715.9c3,3.7,7.6-4.4,9.3-6.3c5.2-5.9,11.7-9.8,17.9-14.4c1.9-1.4,0.3-4.6-1.9-3.3
				c-5.7,3.3-11.2,6.8-15.9,11.4c-2.1,2-3.9,4.4-5.7,6.6c-0.1,0.1-2.7,3.3-2,3.3c-0.8,0-1.2,0.4-1.7,1
				C253.6,714.8,253.6,715.4,254,715.9L254,715.9z"/>
		</g>
	</g>
	<g>
		<g>
			<path class="st0" d="M268.2,728.2c0.3,0.7,0.5,1.3,1,1.9c1,1.1,2.6,0.4,3-0.8c2.6-7,10.4-12.3,15.4-17.5
				c5.7-6,11.3-12.2,16.6-18.6c1.7-2.1-0.9-4.8-3-3c-6.9,6-12.6,13.5-18.8,20.3c-5.1,5.6-11.7,10.2-13.7,17.8c1-0.3,2-0.5,3-0.8
				c-0.6-0.5-1.2-0.7-1.9-1C269,726.1,267.8,727.3,268.2,728.2L268.2,728.2z"/>
		</g>
	</g>
	<g>
		<g>
			<path class="st0" d="M273.6,748.7c3.9,2.9,10.4-4.8,12.9-7.2c7-6.7,14.2-14.7,19.7-22.6c1-1.4-1-3.4-2.4-2.4
				c-6.4,4.6-11.4,10.9-16.5,16.9c-4.2,4.9-8.7,8.9-13.7,12.6C272.6,746.7,272.6,748,273.6,748.7L273.6,748.7z"/>
		</g>
	</g>
	<g>
		<g>
			<path class="st0" d="M517,670.6c2.1,7.3,9.5,12.6,14.6,17.8c2.1,2.1,5.3-1.2,3.2-3.2c-2.8-2.7-5.6-5.2-8.3-8
				c-2.4-2.5-4.2-6.7-7.2-8.4C518.2,668.1,516.7,669.2,517,670.6L517,670.6z"/>
		</g>
	</g>
	<g>
		<g>
			<path class="st0" d="M502.9,680c0.3,4.8,9.1,9.5,12.1,12.6c7.7,8.1,15.4,16.4,25.1,22.3c2.2,1.3,3.9-1.9,2-3.3
				c-8.2-5.9-15.5-12.6-22.7-19.6c-2-2-4-4.7-6.6-6c-2.9-1.5-6.2-3.6-7.9-6.4C504.3,678.6,502.9,678.9,502.9,680L502.9,680z"/>
		</g>
	</g>
	<g>
		<g>
			<path class="st0" d="M510.9,715c5.8,6.2,11.6,12.3,18.6,17.2c1.8,1.2,3.3-1.6,1.7-2.8c-6.6-4.9-12.6-10.4-18.6-16
				C511.5,712.3,509.9,713.9,510.9,715L510.9,715z"/>
		</g>
	</g>
	<g>
		<g>
			<path class="st0" d="M490.3,713.2c-0.1,1.9,0.6,2.3,2,3.6c3.3,3,6.1,7.3,8.9,10.8c7.5,9.3,17.7,16.4,26.8,24
				c1.8,1.5,4.2-0.8,2.6-2.6c-7.4-8.4-16.8-14.4-24.5-22.5c-3.4-3.6-9.2-14.6-14.9-14.3C490.7,712.2,490.3,712.6,490.3,713.2
				L490.3,713.2z"/>
		</g>
	</g>
	<g>
		<g>
			<path class="st0" d="M491.8,690.4c2.1,1.2,2.5,4,4.1,5.7c2.9,3.1,5.7,6.2,7.9,9.9c0.9,1.5,3,0.2,2.3-1.3c-2-4.3-5.7-7.7-9.1-10.9
				c-1.6-1.5-2-5.3-4.9-4.8C491.3,689.1,491.3,690.1,491.8,690.4L491.8,690.4z"/>
		</g>
	</g>
</g>
<g>
	<path d="M462.8,65.9l1.7-8.8l0.8-5.9l1.1-6.1l0.8-5.9l1.3-5.9l1.1-6.1l0.8-5.8l1.2-6.1l0.8-5.9l1.2-5.9c0.3-1.6-0.7-3.1-2.3-3.4
		c0,0,0,0-0.1,0c-1.5-0.3-3,0.7-3.3,2.3l-1.2,6.1l-0.8,5.9l-1.2,6.1l-0.8,5.9l-1,5.9l-1.3,6l-0.8,6l-1.1,6.1l-0.8,5.9l-1.2,6
		C459.4,63.4,461.1,64.6,462.8,65.9z"/>
	<path d="M188.6,59.1l3.1,5.1l3,5.4l3.1,5.1l3,5.2l3,5.5l3.1,5l3,5.4l3.1,5.1l6,10.6l9.2,15.6l3,5.4l3.1,5.1l3,5.2l3,5.5l3.1,5.1
		l3,5.4l3.1,5.1l3,5.3c0.4,0.8,1.2,1.3,2,1.4c0.6,0.1,1.3,0,1.9-0.3c1.4-0.8,1.9-2.5,1.1-3.9l-3-5.4l-3.1-5.1l-3-5.4l-3.1-5.1
		l-2.9-5.4l-3.1-5.3l-3.1-5.1l-9.1-15.9l-3.1-5.1l-6-10.7l-3.1-5.1l-3.1-5.4l-3.1-5l-2.9-5.4l-3.1-5.3l-3.1-5l-3-5.4l-3.1-5.1
		l-2.9-5.3c-0.8-1.4-2.5-1.9-3.9-1.1c-1.4,0.8-1.9,2.5-1.1,3.9L188.6,59.1z"/>
	<path d="M188.5,341.5l5.4,1.9l5.5,2.3l5.7,1.8l5.7,2.2l3.3,1c0.1-2,0.2-4,0.3-5.9l-1.6-0.5l-5.7-2.2l-5.5-1.7l-5.5-2.3l-5.7-2
		l-5.5-1.7l-5.4-2.1l-5.7-1.8l-5.4-2.1c-1.5-0.6-3.1,0.1-3.7,1.6c-0.6,1.5,0.1,3.1,1.6,3.7l5.5,2.2l5.7,1.8l5.4,2.1L188.5,341.5z"/>
	<path d="M2.3,274.5l5.8,2.2l5.6,1.9l5.8,2.3l5.7,1.8l5.6,2l5.6,2.3l5.8,1.9l5.8,2.2l5.6,1.8l11.4,4.4l17.1,6l5.8,2.2l5.7,1.9l5.6,2
		l5.8,2.4l5.6,1.9l5.8,2.3l5.7,1.9l5.7,2.2c0.2,0.1,0.4,0.1,0.5,0.1c1.3,0.2,2.7-0.5,3.2-1.8c0.6-1.5-0.2-3.1-1.7-3.7l-5.8-2.2
		l-5.6-1.9l-5.8-2.3l-5.6-1.9l-5.7-2.3l-5.8-2.1l-5.6-1.9l-17.2-6.3l-5.6-1.9l-11.5-4.4l-5.6-1.8l-5.8-2.2l-5.7-1.8l-5.6-2.3
		l-5.8-2.1l-5.6-1.8l-5.8-2.2l-5.6-1.9l-5.7-2.2c-1.5-0.6-3.1,0.2-3.7,1.6C0.1,272.2,0.8,273.9,2.3,274.5z"/>
	<path d="M219.8,478.8c-0.1-0.9-0.3-1.9-0.4-2.8l-4.3,1.5l-5.3,2.2l-5.7,2l-5.3,2.2l-5.6,1.8l-5.6,2.1l-5.3,2.2l-5.8,2l-5.3,2.1
		l-5.6,1.9c-1.5,0.5-2.3,2.1-1.8,3.6c0.4,1,1.2,1.7,2.2,1.9c0.4,0.1,0.9,0.1,1.4-0.1l5.7-1.9l5.3-2.1l5.8-2l5.4-2.2l5.4-2l5.6-1.8
		l5.5-2.3l5.7-2l5.3-2.2l2.5-0.9C219.6,480.9,219.7,479.9,219.8,478.8z"/>
	<path d="M83.5,532.1l5.8-2l5.6-2.2l5.6-2.1l5.9-2l5.5-2.2l5.9-2l5.6-2.2l5.7-2c1.5-0.5,2.3-2.2,1.8-3.7c-0.5-1.5-2.2-2.3-3.7-1.8
		l-5.8,2l-5.5,2.2l-5.9,2l-5.5,2.2l-5.9,1.9l-5.8,2.1l-5.5,2.2l-17.2,6.2l-5.6,2.1l-11.6,4.1l-5.5,2.2l-5.8,2.1l-5.5,2.2l-5.8,1.9
		l-5.8,2.1l-5.5,2.2l-5.9,2l-5.5,2.2l-5.7,2c-1.5,0.5-2.3,2.1-1.8,3.6c0.4,1,1.2,1.7,2.2,1.9c0.5,0.1,0.9,0.1,1.4-0.1l5.9-2l5.5-2.2
		l5.9-2l5.5-2.2l5.6-2.1l5.8-1.9l5.7-2.3l5.8-2.1l5.5-2.2l11.5-4L83.5,532.1z"/>
	<path d="M219.3,716.6l-1.6,3l-6.3,10.5l-2.8,5.3l-3.2,5.3l-2.8,5.3l-3.2,5.1l-3.1,5.3l-2.8,5.2l-3.2,5.3l-2.8,5.2l-3.1,5.2
		c-0.8,1.4-0.4,3.1,1,4c0.3,0.2,0.6,0.3,1,0.4c1.1,0.2,2.3-0.3,2.9-1.3l3.2-5.3l2.8-5.2l3.2-5.3l2.8-5.3l3-5.2l3.2-5.1l2.9-5.4
		l3.2-5.3l2.8-5.2l5.7-9.6C221.1,721.1,220.2,718.9,219.3,716.6z"/>
	<path d="M470.2,816.8l-1-6.2l-1.2-5.8l-1.1-5.9l-0.9-6l-1.3-6l-1-6.1l-1.2-5.8l-2-12.1l-3.3-17.8l-1-6.1l-0.6-2.7
		c-0.9-0.9-1.8-1.8-2.7-2.7c-0.1,0.5-0.2,1-0.3,1.5c-0.4,2.1-1,4.1-1.9,6l2.9,17l1.2,5.8l2,12.1l1.2,5.8l1,6.1l1.3,5.8l0.9,6
		l1.1,6.1l1.2,5.8l1,6.1l1.2,5.8l0.9,6c0.2,1.3,1.2,2.2,2.3,2.4c0.3,0.1,0.6,0.1,0.9,0c1.6-0.3,2.6-1.7,2.4-3.3l-1-6.1L470.2,816.8z
		"/>
	<path d="M720.1,683.9l-4.7-4.1l-4.7-3.7l-4.7-4.1l-4.7-3.7l-4.6-3.8l-4.5-4l-4.8-3.8l-4.7-4l-4.7-3.7l-9.3-8l-14-11.5l-4.7-4
		l-4.7-3.7l-4.6-3.8l-4.7-4.2l-4.6-3.7l-4.7-4.1l-1.7-1.3c0,0.7,0,1.4,0,2.1c-0.1,1.7-0.3,3.4-0.5,5l3.2,2.8l4.6,3.7l4.6,4.1
		l4.7,3.9l4.7,3.7l14,11.8l4.6,3.7l9.3,8l4.7,3.7l4.7,4l4.7,3.7l4.5,4l4.7,3.9l4.7,3.7l4.7,4.1l4.7,3.7l4.6,4
		c0.4,0.4,0.9,0.6,1.4,0.7c1,0.2,2-0.2,2.7-1C721.4,686.7,721.3,684.9,720.1,683.9z"/>
	<path d="M642.6,414.2l-5.9-0.2l-6,0.2l-5.8-0.2l-6,0.3l-5.8,0l-5.9-0.3l-6.1,0.3l-6-0.1l-5.7,0.3l-7.5-0.1
		c-0.1,1.9-0.3,3.8-0.4,5.7l8,0.2l5.7-0.3l5.9,0.1l5.9-0.3l5.9,0.3l6,0l5.8-0.3l5.8,0.2l6-0.2l5.8,0.2c1.6,0,2.9-1.2,2.9-2.8
		C645.4,415.5,644.2,414.2,642.6,414.2z"/>
	<path d="M816.9,413.7l-6.2-0.1l-5.9,0.2l-6.2-0.1l-6,0.2l-6,0l-6.1-0.2l-6.1,0.3l-6.2-0.1l-5.9,0.2l-12.2-0.2L732,414l-6.2-0.1
		l-6,0.2l-5.9,0l-6.3-0.2l-5.9,0.2l-6.2-0.2l-6,0.1l-6.1-0.1c-1.6,0-2.9,1.2-2.9,2.8c0,1.4,1,2.6,2.4,2.9c0.2,0,0.3,0,0.5,0l6.2,0.1
		l5.9-0.2l6.2,0.2l5.9-0.2l6.2,0.2l6.2,0l5.9-0.2l18.3,0.1l5.9-0.1l12.3,0.2l5.9-0.2l6.2,0.1l5.9-0.3l6.1,0.2l6.2,0l5.9-0.2l6.2,0.1
		l5.9-0.2l6.1,0.1c1.6,0,2.9-1.2,2.9-2.8C819.7,415,818.4,413.7,816.9,413.7z"/>
	<path d="M576.1,271.1l2.7-2.2l4.3-3.8l4.6-3.7c1.2-1,1.4-2.8,0.4-4c-1-1.2-2.8-1.4-4-0.4l-4.7,3.8l-4.3,3.8l-0.7,0.5
		C575,267.1,575.6,269.1,576.1,271.1z"/>
	<path d="M638.6,211l-4.9,3.9l-4.5,3.9l-4.8,3.9l-4.5,4l-4.7,3.9c-1.2,1-1.4,2.8-0.4,4c0.5,0.6,1.1,0.9,1.7,1
		c0.8,0.1,1.6-0.1,2.3-0.6l4.8-3.9l4.5-3.9l4.8-3.9l4.5-3.9l4.8-3.8l4.7-4l4.5-3.9l14.1-11.7l4.5-3.9l9.5-7.8l4.4-4l4.8-3.9l4.4-3.9
		l4.8-3.8l4.7-4l4.4-3.9l4.8-3.9l4.4-3.9l4.7-3.8c1.2-1,1.4-2.8,0.4-4c-1-1.2-2.8-1.4-4-0.4l-4.8,3.9l-4.4,3.9l-4.8,3.9l-4.5,4
		l-4.6,3.9l-4.9,3.9l-4.4,4l-4.8,3.9l-4.4,4l-9.4,7.7l-13.8,11.8l-4.8,3.9l-4.5,4L638.6,211z"/>
	<path d="M149.2,129.1l3.8,4.4l3.8,4.6l3.8,4.4l3.7,4.4l3.8,4.7l3.8,4.3l3.8,4.6l3.8,4.4l7.5,9.1l3.8,4.4l11.3,13.6l3.9,4.4
		c0.4,0.5,1,0.8,1.7,0.9c0.8,0.2,1.7-0.1,2.4-0.7c1.2-1,1.3-2.9,0.3-4l-3.8-4.4l-3.8-4.6l-11.4-13.4l-7.5-9.1l-3.8-4.4l-3.8-4.6
		l-3.8-4.3l-3.7-4.6l-3.8-4.5l-3.8-4.3l-3.8-4.6l-3.8-4.4l-3.7-4.5c-1-1.2-2.8-1.4-4-0.4c-1.2,1-1.4,2.8-0.4,4L149.2,129.1z"/>
	<path d="M187.1,383.9l5.9,1.1l5.7,0.9l11.6,2.1l4.3,0.7c-0.1-2-0.2-3.9-0.3-5.9l-3.1-0.5l-11.6-2.2l-5.7-0.9l-5.9-1.1l-5.7-0.8
		l-5.8-1.2l-5.8-1l-5.7-0.8l-5.9-1.1l-5.7-0.9l-5.8-1.1c-1.5-0.3-3.1,0.7-3.4,2.3c-0.3,1.6,0.7,3.1,2.3,3.4l5.9,1.1l5.7,0.9l5.9,1.1
		l5.7,0.9l5.7,1l5.9,1.2L187.1,383.9z"/>
	<path d="M44.7,359.2l5.9,1.2l5.7,0.8l5.9,1.1l5.7,0.9l11.6,2.2l5.7,0.9l5.8,1l5.7,1l5.9,1.1l5.8,0.9c1.6,0.2,3-0.9,3.3-2.4
		c0.2-1.6-0.9-3-2.4-3.3l-5.7-0.9l-5.8-1.1l-5.8-1l-5.8-1l-5.7-0.9l-11.6-2.2l-5.7-0.8l-5.9-1.1l-5.7-0.8l-5.8-1.2l-5.8-1l-5.7-0.8
		l-5.9-1.1l-5.7-0.9l-5.8-1.1c-1.5-0.3-3.1,0.7-3.4,2.3c-0.3,1.6,0.7,3.1,2.3,3.4l5.9,1.1l5.7,0.9l5.9,1.1l5.7,0.8L44.7,359.2z"/>
	<path d="M219.7,516.5l-3,1.8l-5.2,3l-4.9,3l-5.2,2.9l-5.1,3l-4.9,3l-5.2,2.9l-4.9,3l-5.1,2.9c-1.4,0.8-1.9,2.5-1.1,3.9
		c0.4,0.8,1.2,1.3,2,1.4c0.6,0.1,1.3,0,1.9-0.3l5.2-2.9l4.9-3l5.2-2.9l5-3l5-2.9l5.2-2.9l4.9-3l5.2-2.9l1.9-1.2
		C220.9,520.2,220.2,518.4,219.7,516.5z"/>
	<path d="M145.6,566.2c1.4-0.8,1.8-2.6,1-4c-0.8-1.4-2.6-1.8-3.9-1l-5,3l-5.2,2.9l-15.2,8.9L107,582l-4.9,3l-5.2,3l-4.9,3l-5.2,2.9
		l-5.1,3l-4.9,3l-5.2,2.9l-4.9,3l-5.1,2.9c-1.4,0.8-1.9,2.5-1.1,3.9c0.4,0.8,1.2,1.3,2,1.4c0.6,0.1,1.3,0,1.9-0.3l5.2-2.9l5-3
		l5.2-2.9l5-3l5-2.9l5.2-2.9l4.9-3l5.2-2.9l4.9-3l10.2-5.8l5-3l15.3-8.8L145.6,566.2z"/>
	<path d="M617,540.6l-5.1-3l-5-2.8l-5.1-3l-5.1-2.8l-5-2.9l-5.1-3.1l-5.1-2.7l-4.7-2.8c0.1,1.8,0.1,3.6,0.2,5.3c0,0.5,0.1,1,0.2,1.5
		l1.6,0.9l5,2.7l5.1,3.1l5.1,3l5.1,2.7l5.1,3l5,2.8l5,3c0.3,0.2,0.6,0.3,1,0.4c1.1,0.2,2.3-0.3,3-1.4
		C618.8,543.2,618.4,541.4,617,540.6z"/>
	<path d="M732.1,606.6l-5.1-3.1l-5-2.8l-5.1-3.1l-5.1-2.8l-5-2.9l-5.1-3.1l-5.1-2.7l-5.1-3l-5.1-2.7l-10.2-6l-5.1-2.8l-15.3-8.9
		l-5.2-2.8c-1.4-0.8-3.1-0.2-3.9,1.1c-0.8,1.4-0.3,3.1,1.1,3.9l5.1,2.8l15.3,8.9l5.1,2.8l10.2,6l5.1,2.8l5.2,3l5,2.7l5.1,3.1
		l5.1,2.9l5.1,2.7l5.1,3.1l5.1,2.8l5,3c0.3,0.2,0.6,0.3,1,0.4c1.1,0.2,2.3-0.3,3-1.4C733.9,609.2,733.5,607.4,732.1,606.6z"/>
	<path d="M644.6,369.8l-5.9,1l-5.6,1.1l-5.9,1l-5.7,1.2l-5.7,1l-5.9,0.9l-5.6,1.2l-5.9,1l-5.7,1.1l-8.8,1.5c-0.1,2-0.2,3.9-0.3,5.9
		l10.1-1.7l5.7-1.1l5.9-1l5.6-1.2l5.9-0.9l5.8-1.1l5.6-1.1l5.9-1l5.6-1.1l5.8-1c1.6-0.3,2.6-1.7,2.4-3.3
		C647.7,370.6,646.2,369.6,644.6,369.8z"/>
	<path d="M705.9,358.9l-17.4,3l-5.8,1.2c-1.6,0.3-2.6,1.8-2.3,3.4c0.2,1.2,1.2,2.1,2.3,2.3c0.3,0.1,0.7,0.1,1.1,0l5.7-1.1l17.4-3
		l5.7-1.1l11.7-1.9l5.7-1.2l5.9-1l5.6-1.2l5.9-0.9l5.8-1l5.6-1.1l5.9-1l5.7-1.1l5.8-0.9c1.6-0.3,2.6-1.7,2.4-3.3
		c-0.3-1.6-1.7-2.6-3.3-2.4l-5.9,1l-5.7,1.1l-5.9,1l-5.7,1.2l-5.7,1l-6,0.9l-5.6,1.2l-5.9,1l-5.7,1.2l-11.6,1.9L705.9,358.9z"/>
	<path d="M581.3,195.7c0.4,0.3,0.8,0.5,1.3,0.6c1,0.2,2.1-0.2,2.7-1l3.6-4.5l11.4-13.5l3.7-4.5l7.7-9l3.6-4.5l3.9-4.5l3.5-4.5
		l3.9-4.5l3.8-4.5l3.6-4.5l3.9-4.5l3.6-4.5l3.8-4.4c1-1.2,0.9-3-0.3-4c-1.2-1-3-0.9-4,0.3l-3.9,4.5l-3.6,4.5l-3.9,4.5l-3.6,4.5
		l-3.7,4.4l-4,4.5l-3.6,4.5l-3.9,4.5l-3.6,4.5l-7.7,9l-3.7,4.5L584.6,187l-3.7,4.6C579.9,192.9,580.1,194.7,581.3,195.7z"/>
	<path d="M190.9,240.1l14.1,11.6l4.7,4l4.7,3.8l4.7,3.9l0.5,0.4c0.1-2.3,0.3-4.7,0.5-7.1l-2-1.7l-4.7-3.8l-14.1-11.9l-4.7-3.8
		l-9.4-8l-4.7-3.7l-4.7-4l-4.7-3.7l-4.6-4.1l-4.7-4l-4.7-3.7l-4.7-4.1l-4.7-3.8l-4.6-4c-1.2-1-3-0.9-4.1,0.3c-1,1.2-0.9,3,0.3,4.1
		l4.7,4.1l4.7,3.7l4.7,4.1l4.7,3.8l4.6,3.9l4.7,4.1l4.7,3.7l4.7,4l4.7,3.7L190.9,240.1z"/>
	<path d="M150.1,413.4l6.1-0.2l6,0l6.1,0.2c1.6,0,2.9-1.2,3-2.8c0-1.6-1.2-2.9-2.8-3l-6.2-0.2l-6.2,0l-6,0.2l-18.4,0l-6,0.1
		l-12.4-0.1l-6,0.2l-6.2-0.1l-5.9,0.2l-6.2-0.2l-6.2,0l-6,0.2l-6.2-0.1l-6,0.2l-6.1-0.1c-1.6,0-2.9,1.2-2.9,2.8c0,1.4,1,2.6,2.4,2.9
		c0.1,0,0.3,0,0.4,0l6.2,0.1l6-0.2l6.2,0.1l6-0.2l6,0l6.3,0.2l6-0.2l6.2,0.1l6-0.2l12.3,0.1l18.3-0.1L150.1,413.4z"/>
	<path d="M195.2,573.7l-7.4,6.1l-4.6,4l-9.5,7.8l-4.5,4l-4.8,4l-4.5,4l-4.8,3.9l-4.7,4l-4.5,4l-4.8,3.9l-4.5,4l-4.7,3.9
		c-1.2,1-1.4,2.8-0.4,4c0.5,0.6,1.1,0.9,1.7,1c0.8,0.1,1.6-0.1,2.3-0.6l4.8-3.9l4.5-4l4.8-3.9l4.5-4l4.6-3.9l4.9-3.9l4.5-4l4.8-4
		l4.5-4l9.5-7.8l4.6-4l3.2-2.7C194.6,578.9,194.8,576.3,195.2,573.7z"/>
	<path d="M624.8,509.2l17.3,6.4l5.7,2l11.6,4.4l5.7,1.9l5.8,2.2l5.6,1.8l5.8,2.3l5.8,2.1l5.7,1.9l5.8,2.2l5.7,1.9l5.7,2.2
		c0.2,0.1,0.4,0.1,0.5,0.1c1.3,0.2,2.7-0.5,3.2-1.8c0.6-1.5-0.2-3.1-1.6-3.7l-5.8-2.2l-5.7-1.9l-5.8-2.2l-5.7-1.9l-5.7-2l-5.9-2.3
		l-5.7-1.8l-5.8-2.2l-5.7-1.9l-11.5-4.3l-17.2-6.1l-5.8-2.2l-5.7-1.9l-5.7-2l-5.7-2.3c-1.5-0.6-3.1,0.1-3.7,1.6
		c-0.6,1.5,0.1,3.1,1.6,3.7l5.8,2.3l5.8,2.1L624.8,509.2z"/>
	<path d="M665.5,328.1l5.6-2.2l5.9-2.1l5.5-2.2l5.9-2l5.8-2.1l5.6-2.2l5.9-2l5.6-2.2l5.8-2c1.5-0.5,2.3-2.2,1.8-3.7
		c-0.5-1.5-2.2-2.3-3.7-1.8l-5.9,2l-5.6,2.2l-5.9,2.1l-5.6,2.2l-5.7,2.1l-5.9,2l-5.6,2.2l-5.9,2.1l-5.6,2.2l-11.6,4.1l-17.1,6.4
		l-5.9,2.1l-5.6,2.2l-5.7,2.1l-5.8,2c-1.5,0.5-2.3,2.1-1.8,3.6c0.4,1,1.2,1.7,2.2,1.9c0.5,0.1,0.9,0.1,1.4-0.1l5.9-2l5.8-2.1
		l5.6-2.2l17.3-6.3l5.6-2.2L665.5,328.1z"/>
	<path d="M571.9,124.2c-1.4-0.8-3.1-0.4-3.9,1l-3.2,5.3l-2.9,5.3l-3.2,5.4l-2.9,5.3l-3,5.2l-3.3,5.4l-2.8,5.3l-3.1,5.4l-2.8,5.3
		l-4.3,7.3c1.9,0.6,3.7,1.3,5.4,2.2l3.9-6.6l2.9-5.3l3.2-5.4l2.8-5.2l3.2-5.3l3.1-5.4l2.8-5.3l3.2-5.3l2.9-5.3l3.1-5.2
		C573.7,126.8,573.3,125,571.9,124.2z"/>
	<path d="M281.7,78.5l2.1,5.4l2,5.6l2.1,5.4l2,5.4l1.9,5.7l2.1,5.3l2,5.6l2.1,5.4l3.9,11.1l1.7,4.3c0.5-4.1,1-8.2,1.6-12.4l-1.8-5.1
		l-2.1-5.4l-2-5.6l-2.1-5.3l-1.9-5.6l-2-5.6l-2.1-5.3l-2-5.6l-2.1-5.4l-1.9-5.5c-0.5-1.5-2.2-2.3-3.7-1.8c-1.5,0.5-2.3,2.2-1.8,3.7
		L281.7,78.5z"/>
	<path d="M85.9,229.3l5.1,3.1l5,2.8l5.1,3.1l5.1,2.8l5,2.9l5.1,3.1l5.1,2.7l5.1,3l5.1,2.7l10.1,6l5.1,2.8l15.3,8.9l5.1,2.8l5.1,2.9
		c0.3,0.2,0.6,0.3,0.9,0.3c1.1,0.2,2.4-0.3,3-1.4c0.8-1.4,0.3-3.1-1.1-3.9l-5.1-2.9l-5.1-2.8l-15.3-8.9l-5-2.8l-10.2-6l-5.1-2.7
		l-5.1-3l-5-2.7l-5.1-3.1l-5.1-2.9l-5-2.7l-5.1-3.1l-5-2.8l-5-3c-1.4-0.8-3.1-0.4-3.9,1C84.1,226.7,84.6,228.5,85.9,229.3z"/>
	<path d="M187.8,287.7l5.3,3.2l5.3,2.8l5.4,3.2l5.3,2.8l5.2,3l5.2,3.2l0.4,0.2c0.5-1.9,1-3.8,1.6-5.7l-4.2-2.6l-5.4-3.1l-5.3-2.8
		l-5.3-3.2L196,286l-5.2-3.1c-1.4-0.8-3.1-0.4-3.9,1C186,285.1,186.5,286.9,187.8,287.7z"/>
	<path d="M37.1,473.7c0.3,0.1,0.6,0.1,0.9,0l5.9-1l5.6-1.1l5.9-0.9l5.7-1.2l5.7-1l6-0.9l5.6-1.2l5.9-1l5.6-1.2l11.6-1.9l5.7-1.1
		l17.4-3l5.7-1.1l5.8-1c1.6-0.3,2.6-1.8,2.3-3.3c-0.3-1.6-1.8-2.6-3.3-2.3l-5.8,1l-5.7,1.1l-17.4,3l-5.7,1.1l-11.7,1.9l-5.6,1.2
		l-5.9,1l-5.6,1.2l-5.9,0.9l-5.8,1l-5.6,1.1l-5.9,1l-5.6,1.1l-5.8,0.9c-1.6,0.2-2.6,1.7-2.4,3.3C34.9,472.6,35.9,473.6,37.1,473.7z"
		/>
	<path d="M189.8,446.6l5.8-1.2l6.1-1l5.9-1.2l8.9-1.5c-0.1-1.9-0.2-3.8-0.2-5.8l-9.7,1.6l-5.9,1.2l-6.2,1l-5.8,1.2l-6.1,0.9
		l-6.1,1.1l-5.8,1.2l-6.2,1l-5.8,1.2l-6,1c-1.6,0.2-2.6,1.7-2.4,3.3c0.2,1.3,1.2,2.2,2.3,2.4c0.3,0,0.6,0.1,0.9,0l6.2-1l5.9-1.2
		l6.2-1l5.9-1.2l5.9-1.1L189.8,446.6z"/>
	<path d="M184.1,652.1L184.1,652.1l-3.9,4.5l-3.5,4.5l-3.9,4.4l-3.8,4.5l-3.6,4.5l-3.9,4.5l-3.6,4.5l-3.8,4.4c-1,1.2-0.9,3,0.3,4
		c0.4,0.4,0.9,0.6,1.4,0.7c1,0.2,2-0.1,2.7-0.9l3.9-4.5l3.6-4.5l3.9-4.5l3.6-4.5l3.7-4.4l4-4.5l3.6-4.5l3.1-3.7
		C186.5,655.3,185.2,653.7,184.1,652.1z"/>
	<path d="M390.9,763.7l-0.1-4.6c-1.8,0.3-3.7,0.5-5.7,0.5l0.1,4.2l-0.1,6l0.1,5.7l-0.1,5.8c0,1.4,1,2.6,2.4,2.9c0.1,0,0.3,0,0.4,0
		c1.6,0,2.9-1.2,2.9-2.8l0.1-6l-0.1-5.7L390.9,763.7z"/>
	<path d="M626.5,700.7l-3.8-4.6l-3.8-4.3l-3.8-4.6l-3.8-4.3l-3.7-4.4l-3.8-4.7l-3.8-4.3l-3.8-4.6l-1-1.2c-1.3,1.4-2.8,2.6-4.3,3.8
		l1,1.1l3.8,4.6l3.8,4.3l3.7,4.6l3.8,4.5l3.8,4.3l3.8,4.6l3.8,4.3l3.7,4.5c0.5,0.5,1.1,0.9,1.7,1c0.8,0.1,1.6-0.1,2.3-0.6
		C627.4,703.7,627.5,701.9,626.5,700.7z"/>
	<path d="M755.1,487.3l-5.9-1.1l-5.7-0.9l-5.9-1.1l-5.7-0.8l-5.7-1l-5.9-1.2l-5.7-0.8l-5.9-1.1l-5.7-0.8l-11.6-2.2l-5.7-0.9l-5.8-1
		l-5.7-1l-5.9-1.1l-5.7-0.8l-5.8-1l0,0c-1.6-0.3-3,0.8-3.3,2.3c-0.3,1.6,0.8,3.1,2.3,3.3l5.8,1l5.7,0.9l5.8,1.1l5.8,1l5.8,1l5.7,0.9
		l11.6,2.2l5.7,0.8l5.9,1.1l5.6,0.8l5.8,1.2l5.8,1l5.7,0.8l5.9,1.1l5.7,0.9l5.7,1.1c1.6,0.2,3.1-0.7,3.4-2.3
		C757.7,489.2,756.7,487.6,755.1,487.3z"/>
	<path d="M639.4,467.3l-6.1-1.2l-5.9-0.9l-6.1-1.2l-5.9-0.8l-5.9-1l-6.1-1.3l-6-0.8l-6.1-1.1l-5.9-0.8l-6.6-1.3
		c-0.2,1.9-0.3,3.8-0.4,5.8l6.2,1.2l5.9,0.8l6.1,1.1l5.9,0.8l6,1.3l6.1,1.1l5.9,0.8l6.1,1.2l5.9,0.9l6,1.2c0,0,0,0,0.1,0
		c1.5,0.3,3-0.7,3.3-2.3C642,469.1,641,467.6,639.4,467.3z"/>
	<path d="M631.4,296.7c0.6,0.1,1.3,0,1.9-0.3l5.1-3l4.9-3l5.1-2.9l15.1-8.9l10.3-5.8l4.9-3l5.2-2.9l4.9-3l5.2-2.9l5.1-3l4.9-3
		l5.2-2.9l4.9-3l5.1-2.9c1.4-0.8,1.9-2.5,1.1-3.9c-0.8-1.4-2.5-1.9-3.9-1.1l-5.2,2.9l-4.9,3l-5.2,2.9l-4.9,3l-5,2.9l-5.2,2.9l-4.9,3
		l-5.2,2.9l-4.9,3l-10.2,5.8l-5,3l-15.3,8.8l-5,3l-5.1,3c-1.4,0.8-1.8,2.6-1,3.9C629.9,296.1,630.6,296.5,631.4,296.7z"/>
	<path d="M618.9,301.4c-0.8-1.4-2.5-1.9-3.9-1.1l-5.4,3l-5.1,3.1l-5.4,3l-5.1,3.2l-5.2,3l-5.1,2.8c0.2,2.1,0.3,4.3,0.4,6.5l2.1-1.3
		l5.4-3l5.3-3.1l5.1-3.1l5.4-3l5.1-3.1l5.3-3C619.2,304.5,619.7,302.8,618.9,301.4z"/>
	<path d="M509,149.6l1.5-4l1.9-5.5l4.2-11.1l1.8-5.5l2.1-5.6l1.8-5.4l2.2-5.5l2-5.6l1.8-5.4l2.1-5.6l1.8-5.4l2.1-5.5
		c0.6-1.5-0.2-3.1-1.7-3.7c-1.5-0.6-3.1,0.2-3.7,1.7l-2.1,5.6l-1.8,5.4l-2.1,5.6l-1.8,5.5l-2,5.4l-2.2,5.6l-1.8,5.5l-2.1,5.6
		l-1.8,5.5l-4.2,11l0,0C507.7,142,508.4,145.8,509,149.6z"/>
</g>
</svg>
